<?xml version="1.0" encoding="UTF-8" standalone="no"?>
<svg
   width="83"
   height="87"
   viewBox="0 0 83 87"
   version="1.1"
   id="svg1607"
   sodipodi:docname="process-2.svg"
   inkscape:version="1.1 (c68e22c387, 2021-05-23)"
   xmlns:inkscape="http://www.inkscape.org/namespaces/inkscape"
   xmlns:sodipodi="http://sodipodi.sourceforge.net/DTD/sodipodi-0.dtd"
   xmlns="http://www.w3.org/2000/svg"
   xmlns:svg="http://www.w3.org/2000/svg">
  <defs
     id="defs1611" />
  <sodipodi:namedview
     id="namedview1609"
     pagecolor="#505050"
     bordercolor="#eeeeee"
     borderopacity="1"
     inkscape:pageshadow="0"
     inkscape:pageopacity="0"
     inkscape:pagecheckerboard="0"
     showgrid="false"
     inkscape:zoom="7.8156353"
     inkscape:cx="29.236267"
     inkscape:cy="49.580103"
     inkscape:window-width="1920"
     inkscape:window-height="1015"
     inkscape:window-x="0"
     inkscape:window-y="0"
     inkscape:window-maximized="1"
     inkscape:current-layer="svg1607" />
  <path
     style="fill:#4f1f37;stroke:none;stroke-width:0.322856;fill-opacity:1"
     d="m 45.379041,2.0353496 c -2.025594,0.481755 -3.436149,2.295218 -4.842829,3.701877 -3.192718,3.192684 -6.932674,8.6230464 -10.977083,10.6452514 -1.281414,0.640707 -3.128146,0.331831 -4.519976,0.331831 H 14.707782 c -1.422177,0 -3.522804,-0.378613 -4.8091888,0.33183 -2.261473,1.248935 -3.683457,5.563154 -4.925061,7.739554 -1.496467,2.623233 -4.00365895,5.761968 -4.66719095,8.717095 -0.605096,2.694874 -0.12705,5.960233 -0.12705,8.717095 v 17.111335 18.079901 c 0,1.694022 -0.69157,5.37199 0.748346,6.585281 1.21668295,1.025066 3.89973795,0.517537 5.38590495,0.517537 H 20.519179 62.167521 c 5.773301,0 13.469849,1.357607 19.042333,-0.102668 2.401398,-0.629246 1.620411,-4.484784 1.620411,-6.35444 V 58.685507 41.897028 c 0,-2.6571 0.456195,-5.796223 -0.127205,-8.39424 C 82.016347,30.443927 79.404124,27.176824 77.851513,24.462837 76.619497,22.309264 75.431066,18.730508 73.39966,17.231975 70.421642,15.03517 65.517792,18.254426 62.490377,15.697928 58.699409,12.496526 55.354304,8.5915896 51.836149,5.0917736 50.091438,3.3560156 48.061001,1.3974876 45.379041,2.0353496 M 26.65343,24.462837 c 3.775245,-5.359398 9.568465,-9.891448 14.205636,-14.5284914 1.328551,-1.328614 3.491036,-4.502282 5.488542,-4.69238 1.430572,-0.136116 2.660005,1.542894 3.551408,2.432392 2.800771,2.7950564 5.605093,5.5871744 8.393918,8.3942404 1.066715,1.073559 2.885036,2.511202 1.990404,4.19712 -2.331339,4.392641 -6.13393,4.197119 -10.384322,4.197119 H 26.65343 m 17.757045,-5.488541 c -0.996977,0 -6.688271,-0.04097 -4.323679,2.388032 0.767428,0.788219 2.365885,0.517602 3.355113,0.517667 1.055092,6.5e-5 2.816268,0.318239 3.634706,-0.517667 1.189077,-1.214872 1.163894,-8.739436 0.04487,-9.995053 -2.341993,-2.6272684 -2.711017,2.563052 -2.711017,3.732757 v 3.874264 m -18.079901,0.968566 c -1.067069,1.514838 -2.726965,3.664086 -4.519974,4.325165 -1.230531,0.453708 -2.6119,-0.03003 -3.860059,0.334801 -0.777532,0.22729 -1.524071,0.87074 -1.315087,1.766987 0.298545,1.280509 1.879987,1.305885 2.915158,1.320318 2.904472,0.04055 5.8123,0.0013 8.717095,0.0013 h 29.379842 c 2.163777,0 8.642193,1.078144 10.077608,-0.785474 2.275162,-2.954321 -5.6942,-2.44308 -6.849054,-2.44308 l 2.905699,-4.519975 7.67976,0.331831 2.403335,3.542434 4.445396,8.394239 H 4.6992662 l 4.445492,-8.394239 2.4032388,-3.542434 4.451207,-0.331831 H 26.330575 M 79.601712,35.43992 V 81.285383 H 3.4078442 V 35.43992 H 79.601712 M 13.739216,70.954011 V 45.771292 h 3.55141 c 1.025452,0 7.430967,-0.616976 4.094483,-2.847907 -1.472479,-0.984386 -8.768009,-1.007309 -10.1261,0.13689 -1.4002238,1.179714 -0.748346,4.620706 -0.748346,6.262426 v 18.079901 c 0,1.789587 -0.7745628,5.743274 1.31034,6.585281 2.552398,1.030554 6.923957,0.194682 9.666742,0.194682 h 22.599876 c 1.719204,0 9.748294,1.062839 9.187817,-1.907107 -0.442312,-2.341993 -7.392096,-1.321447 -9.187817,-1.321447 H 13.739216 M 26.69976,42.817488 c -1.659638,0.543366 -0.842072,3.241468 0.875906,2.679054 1.659606,-0.543365 0.842104,-3.241468 -0.875906,-2.679054 m 42.57058,2.953804 v 25.182719 l -2.905698,3.23e-4 c -1.296588,0.0087 -4.393417,0.935635 -2.437881,2.710694 1.201345,1.090282 6.998212,1.023128 8.054595,-0.230842 1.145491,-1.359544 0.517537,-4.679789 0.517537,-6.354439 v -17.43419 c 0,-1.830591 0.816502,-6.049019 -1.310469,-6.908137 -2.394619,-0.966952 -6.450328,-0.194682 -9.020903,-0.194682 H 40.859066 c -1.662059,0 -9.154176,-1.018286 -8.595539,1.907107 0.437953,2.293564 6.860192,1.321447 8.595539,1.321447 H 69.27034 m -46.168318,13.23707 c -0.559444,-1.262041 -0.945192,-2.581551 -1.428441,-3.874264 -0.396951,-1.061872 -3.649816,-6.943651 -4.137812,-2.576709 -0.324534,2.904084 2.380735,7.932557 3.44477,10.648093 0.364052,0.929178 0.906772,2.377507 2.121483,2.377507 1.350664,0 1.805503,-1.689825 2.152379,-2.700362 0.982965,-2.863727 3.597965,-7.268766 3.274367,-10.317167 -0.449157,-4.231342 -3.645296,1.421533 -4.027718,2.568638 -0.435273,1.305627 -0.903866,2.590592 -1.399028,3.874264 M 35.04767,51.108091 c -7.303441,1.652697 -5.830865,16.339711 2.259988,14.509121 7.275545,-1.64624 5.872416,-16.349073 -2.259988,-14.509121 m 12.591359,3.057441 c 0,3.011595 -0.05521,6.028678 0.0016,9.039628 0.01937,1.037011 0.182092,2.518271 1.600072,2.369435 1.351473,-0.142056 1.296909,-1.678525 1.30369,-2.691968 0.02002,-2.905376 3.23e-4,-5.811719 3.23e-4,-8.717095 4.040534,-0.0032 4.704325,-3.219515 0.322854,-3.228554 -1.734705,-0.0035 -4.462187,-0.508498 -6.060644,0.239559 -3.322828,1.555194 1.52194,2.988026 2.832087,2.988995 m 11.94565,8.39424 v -2.582844 c 4.580672,-6.45e-4 4.580672,-3.227908 0,-3.228553 v -2.582843 c 1.18391,0 7.331077,0.340289 5.234777,-2.480175 -0.839425,-1.129026 -3.043881,-0.779696 -4.266211,-0.743536 -4.972618,0.14819 -4.19712,5.104021 -4.19712,8.712252 0,1.722756 -0.236976,3.705734 1.095771,5.038481 1.265593,1.26527 6.143292,1.994277 7.36756,0.347393 2.0963,-2.820465 -4.050867,-2.480175 -5.234777,-2.480175 M 35.694995,54.319856 c 3.806142,-0.819729 4.100263,7.401137 0.962109,8.08559 -3.783219,0.825542 -4.126092,-7.404364 -0.962109,-8.08559 m 22.026162,16.980256 c -1.661091,0.919815 -0.186933,3.507501 1.400547,2.495672 1.444778,-0.921106 0.174988,-3.368027 -1.400547,-2.495672 z"
     id="path1291" />
</svg>
