<?xml version="1.0" encoding="UTF-8" standalone="no"?>
<svg
   width="87"
   height="86"
   viewBox="0 0 87 86"
   version="1.1"
   id="svg1927"
   sodipodi:docname="process-3.svg"
   inkscape:version="1.1 (c68e22c387, 2021-05-23)"
   xmlns:inkscape="http://www.inkscape.org/namespaces/inkscape"
   xmlns:sodipodi="http://sodipodi.sourceforge.net/DTD/sodipodi-0.dtd"
   xmlns="http://www.w3.org/2000/svg"
   xmlns:svg="http://www.w3.org/2000/svg">
  <defs
     id="defs1931" />
  <sodipodi:namedview
     id="namedview1929"
     pagecolor="#505050"
     bordercolor="#eeeeee"
     borderopacity="1"
     inkscape:pageshadow="0"
     inkscape:pageopacity="0"
     inkscape:pagecheckerboard="0"
     showgrid="false"
     inkscape:zoom="3.8282098"
     inkscape:cx="65.957722"
     inkscape:cy="20.244449"
     inkscape:window-width="1920"
     inkscape:window-height="1015"
     inkscape:window-x="0"
     inkscape:window-y="0"
     inkscape:window-maximized="1"
     inkscape:current-layer="svg1927" />
  <path
     style="fill:#4f1f37;stroke:none;stroke-width:0.336366;fill-opacity:1"
     d="m 42.149694,10.150456 c -6.279288,0.810912 -10.410035,4.240268 -12.657332,10.07646 -0.35194,0.913975 -1.516171,1.75257 -1.555459,2.727259 -0.03515,0.872366 0.78518,1.542374 0.989119,2.362873 0.384097,1.545165 0.105383,3.428683 0.105383,5.01539 -5.239343,0 -10.58037,-0.304075 -15.80922,0.0148 -1.956811,0.119309 -3.6272058,1.339175 -3.9606118,3.349201 -0.525405,3.167562 2.6126578,4.836274 2.6151468,8.072455 -2.5734038,0 -8.638167,-1.114718 -10.5441499,0.865472 -1.30889243,1.359592 -0.89230603,3.808003 -0.89230603,5.52549 v 14.127386 c 0,1.852034 -0.4948924,4.529173 1.08592183,5.881703 1.2487904,1.068636 3.1078267,0.845625 4.6323064,0.845625 3.5018099,3.36e-4 13.2054747,1.770969 14.1273877,-2.690931 l 3.363664,0.336367 c -0.304546,2.463547 -0.124052,4.533881 2.354564,5.718228 -0.421602,1.503894 -0.812325,2.918987 0.03038,4.367717 1.118452,1.92267 2.992989,1.732623 4.582723,2.892751 3.568343,2.603811 7.860041,10.010599 12.205222,4.175988 h 0.336366 c 3.924051,5.281288 9.546414,-0.991608 13.244425,-3.359628 1.233793,-0.789787 2.690259,-0.589986 3.777731,-1.76155 1.354211,-1.458484 1.650214,-3.460538 3.028643,-5.040113 1.439312,-1.649205 0.551305,-4.773712 3.160162,-5.266825 1.225046,-0.231756 2.466238,0.542895 3.698349,0.613532 3.453137,0.197447 6.968501,0.01446 10.427356,0.01446 1.836561,0 4.247635,0.326275 5.468645,-1.390202 0.994299,-1.398611 0.585951,-3.716176 0.585951,-5.337125 v -12.78192 c 0,-1.808305 0.423484,-4.231489 -1.085791,-5.572245 -2.107672,-1.872552 -7.679581,-0.818716 -10.350666,-0.818716 0,-1.224374 -0.265057,-2.825813 0.202829,-3.979214 0.907179,-2.2365 3.007788,-2.930423 2.355574,-5.775141 -0.603106,-2.629712 -2.941861,-3.023698 -5.249334,-3.027567 h -14.46376 c 0,-1.586707 -0.278848,-3.470225 0.105282,-5.01539 0.204174,-0.820499 1.024236,-1.490507 0.989253,-2.362873 C 59.014095,21.979486 57.84993,21.140925 57.498091,20.226916 55.250827,14.39069 51.119912,10.961368 44.840624,10.150456 V 8.8049907 c 1.432249,0 2.96507,0.1455794 4.372763,-0.162465 3.154107,-0.6901228 4.144033,-5.5306031 1.873561,-7.76446562 -1.195783,-1.17657 -3.370055,-0.838067 -4.900858,-0.817297 -1.458821,0.01979 -3.071361,0.211543 -3.747794,1.71582882 -0.997999,2.2188979 -0.288602,5.9666583 -0.288602,8.3738641 m 7.063693,-7.4000599 v 3.0272973 h -4.372763 c 0.01144,-3.2381822 1.539885,-3.0272973 4.372763,-3.0272973 M 46.18609,21.586913 h -5.381862 c 10e-4,-1.634674 0.178611,-8.339599 2.690931,-8.339599 2.512321,0 2.689922,6.704925 2.690931,8.339599 m -6.727327,-7.736427 -1.681832,7.736427 h -5.718229 c 1.081789,-3.730842 3.341801,-7.0126 7.400061,-7.736427 m 15.472852,7.736427 h -5.718228 l -1.681832,-7.736427 c 4.031015,0.718983 6.326715,4.034916 7.40006,7.736427 m 0,2.690931 v 6.054594 l -6.727327,-0.248372 -4.709129,-2.530788 -4.709129,2.53442 -6.727328,0.24474 V 24.277844 H 54.931615 M 50.558852,36.050667 H 36.431465 c 1.193092,-1.620613 4.898503,-5.457814 7.063694,-5.400027 2.1958,0.0586 5.840329,3.739049 7.063693,5.400027 M 35.086,33.023369 c -4.027046,4.608219 -11.230667,3.027298 -16.818319,3.027298 -1.424276,0 -5.934478,0.747069 -6.168286,-1.36733 -0.250795,-2.267984 3.863335,-1.659968 5.159187,-1.659968 H 35.086 m 16.818319,0.336367 c 1.671403,-0.701358 3.918667,-0.336367 5.718227,-0.336367 h 12.10919 c 1.295683,0 5.410116,-0.607982 5.159186,1.659968 -0.229065,2.071681 -4.441044,1.36733 -5.83192,1.36733 -6.161559,0 -12.052343,1.090499 -17.154683,-2.690931 m -21.191082,5.381862 v 6.39096 l -9.342979,-0.443331 -2.448276,-2.334382 -4.017964,-0.58595 v -3.027297 h 15.809219 m 22.872912,0 v 5.045495 l -8.745525,-1.27382 -5.381861,3.042435 -6.054595,-0.08678 v -6.727327 h 20.181981 m 18.500151,0 v 4.372763 C 69.023684,43.1147 66.685937,43.645823 66.368071,47.150761 64.134935,46.521755 58.014749,46.15377 56.622865,44.270118 55.727458,43.058527 56.277081,40.19033 56.277081,38.741601 H 72.0863 M 17.594949,44.459825 V 65.987272 H 3.131195 V 50.178054 L 3.6705249,44.805611 7.5039582,44.459825 H 17.594949 m 48.773122,5.381863 v 11.436455 c 0,1.140956 0.382112,3.143345 -0.539195,4.011169 -2.647203,2.493148 -4.68491,0.280194 -6.537616,-1.656604 -3.724921,-3.89344 -7.318323,-7.924791 -11.086972,-11.772822 1.265747,-1.963371 -0.03835,-3.314217 -2.018198,-1.851697 -2.847341,2.103299 -5.157506,4.964431 -8.072792,6.96312 -1.402649,0.961671 -3.439347,1.257337 -4.108278,-0.745052 -0.842733,-2.522747 3.893339,-5.373452 5.453743,-6.777781 1.57924,-1.421485 3.264771,-3.522765 5.381861,-4.123179 2.243228,-0.636406 4.896486,0.485376 7.063695,1.027263 4.797929,1.199481 9.621086,2.489447 14.463752,3.489128 M 83.859123,65.987272 H 69.395368 V 45.805292 H 79.48636 l 3.833568,0.345784 0.539195,5.036077 V 65.987272 M 36.095099,48.496222 c -1.47833,2.097245 -4.114232,3.470965 -4.829548,6.054595 -0.957703,3.459191 2.821441,6.875664 6.175014,5.834946 3.125515,-0.969743 5.293061,-5.834946 8.409158,-6.197886 1.64315,-0.191056 3.113072,2.366674 4.06667,3.390237 2.94926,3.166216 6.093949,6.172323 8.955754,9.418258 0.812661,0.92198 2.573539,2.34851 2.572867,3.680184 -6.73e-4,1.392557 -1.615232,1.353202 -2.477002,0.824434 -1.233456,-0.75716 -5.278597,-6.423252 -6.841019,-4.658674 -0.85168,0.962344 0.516322,2.2032 1.129181,2.844987 1.120437,1.173246 6.058968,4.734692 5.010178,6.620026 -0.703006,1.263393 -2.239528,0.360249 -2.998371,-0.278848 -1.151381,-0.97008 -5.161877,-6.461597 -6.881383,-5.045831 -0.86076,0.70906 0.02085,1.808978 0.532133,2.404683 1.187709,1.383811 4.375789,3.351218 4.375789,5.362016 0,3.12888 -4.340808,-0.97479 -5.370425,-0.566777 -2.079417,0.82477 1.553003,3.390236 -0.207202,4.673137 -0.91828,0.66937 -2.093544,-0.202828 -2.473301,-1.074353 -1.198474,-2.748787 -0.104947,-5.314925 -4.102997,-6.039459 -0.560724,-2.218336 -1.736324,-3.619638 -4.036396,-4.036396 -0.560724,-2.218336 -1.736324,-3.619639 -4.036398,-4.036396 -1.286533,-5.089224 -4.122371,-3.140653 -7.736425,-3.320609 -1.527878,-0.07602 -3.192589,-0.75817 -4.70913,-1.052154 V 47.487123 l 15.472853,1.009099 m -8.05954,18.036974 c 2.426513,-0.859753 2.298122,2.673103 0.318169,3.267798 -2.339799,0.70267 -2.144437,-2.620966 -0.318169,-3.267798 m 4.35433,4.049514 c 1.209775,-0.352176 1.965859,0.691906 1.543484,1.797206 -0.503675,1.317883 -2.208447,3.037724 -3.551323,3.488792 -1.271868,0.427521 -2.214534,-0.572833 -1.66286,-1.810324 0.558503,-1.252629 2.330515,-3.085489 3.670699,-3.475674 m 4.036531,4.036397 c 3.07237,-0.894062 0.897425,3.717521 -1.002372,4.263779 -3.191814,0.917608 -0.924334,-3.703057 1.002372,-4.263779 m 4.036396,4.036396 c 3.098608,-0.901798 0.827125,4.05086 -1.325619,4.457527 -3.079435,0.581578 -0.317867,-3.979214 1.325619,-4.457527 z"
     id="path1871" />
</svg>
